<svg id="Layer_1" data-name="Layer 1" xmlns="http://www.w3.org/2000/svg" viewBox="0 0 341.8 446.5"><defs><style>.cls-1{fill:#97d2b4;stroke:#0a9;stroke-width:11px;}.cls-1,.cls-8,.cls-9{stroke-miterlimit:10;}.cls-2{fill:#dbab7b;}.cls-3{fill:#6d6e71;}.cls-4{fill:#ffe1bf;}.cls-5,.cls-9{fill:none;}.cls-6,.cls-8{fill:#a7a9ac;}.cls-7{fill:#c49a6c;}.cls-8,.cls-9{stroke:#fff200;stroke-width:5px;}.cls-10{fill:#939598;}.cls-11{font-size:45px;fill:#fff;font-family:BrushScriptMT, Brush Script MT;font-style:italic;text-decoration:underline;letter-spacing:0.01em;}.cls-12{letter-spacing:0em;}</style></defs><title>Graphic - 1</title><rect class="cls-1" x="5.5" y="5.5" width="319.73" height="395.99"/><rect class="cls-2" x="137.85" y="143.82" width="60" height="75"/><path class="cls-3" d="M304.53,241.53v-50.6s61.69-12,63.83-25.1l2.88,9.7L375,158s12.45,66.38-20.44,94.72h-50Z" transform="translate(-138.15 -118.99)"/><path class="cls-3" d="M306.29,241.53v-50.6s-61.69-12-63.83-25.1l-2.88,9.7L235.86,158s-12.45,66.38,20.44,94.72h50Z" transform="translate(-138.15 -118.99)"/><path class="cls-4" d="M356.29,267.81h-100v-37.5s2-41.73,2-31.64,48,6.62,48,19.14c0-12.84,48-8.43,48-19.14s2,31.64,2,31.64Z" transform="translate(-138.15 -118.99)"/><path class="cls-5" d="M257.44,212.32c-3.51,1-7.34-.87-9.68-3.67s-3.47-6.39-4.42-9.92a17.4,17.4,0,0,1-.84-6.11,6.4,6.4,0,0,1,3-5.12" transform="translate(-138.15 -118.99)"/><path class="cls-4" d="M338.86,318.52a9.62,9.62,0,0,1-8,4.28h-49.7a9.62,9.62,0,0,1-8-4.28l-15.53-23.29a9.62,9.62,0,0,1-1.62-5.34V262.81H356v27.09a9.62,9.62,0,0,1-1.62,5.34Z" transform="translate(-138.15 -118.99)"/><ellipse class="cls-4" cx="252.11" cy="248.6" rx="7.5" ry="15" transform="translate(-184.67 -60.61) rotate(-12.1)"/><ellipse class="cls-4" cx="359.6" cy="248.6" rx="15" ry="7.5" transform="translate(-124.35 397.08) rotate(-72.38)"/><path class="cls-3" d="M334.66,290.14a17.38,17.38,0,0,1,1.34,6.67c0,12.43-13.43,22.5-30,22.5s-30-10.07-30-22.5a17.21,17.21,0,0,1,.77-5A63.22,63.22,0,0,1,256,274.68v16.22a9.62,9.62,0,0,0,1.62,5.34l15.53,23.29a9.62,9.62,0,0,0,8,4.28h49.7a9.62,9.62,0,0,0,8-4.28l15.53-23.29a9.62,9.62,0,0,0,1.62-5.34V269.77A63.84,63.84,0,0,1,334.66,290.14Z" transform="translate(-138.15 -118.99)"/><path class="cls-3" d="M304.53,212.66a47.08,47.08,0,0,0-28.75,23.24c0,.21.91-10.52,9.61-17.51S304.74,212.7,304.53,212.66Z" transform="translate(-138.15 -118.99)"/><path class="cls-3" d="M302.33,211.91a38,38,0,0,0-15,18.89,20.45,20.45,0,0,1,15-18.89Z" transform="translate(-138.15 -118.99)"/><rect class="cls-6" x="130.35" y="218.82" width="75" height="25"/><path class="cls-7" d="M373.08,471.43H238.92a27.48,27.48,0,0,1-27-32.39l10-55a27.48,27.48,0,0,1,27-22.56H363.07a27.48,27.48,0,0,1,27,22.56l10,55A27.48,27.48,0,0,1,373.08,471.43Z" transform="translate(-138.15 -118.99)"/><circle class="cls-8" cx="167.85" cy="231.32" r="14"/><line class="cls-9" x1="176.72" y1="218.82" x2="159.34" y2="242.44"/><line class="cls-9" x1="157.31" y1="218.82" x2="179.34" y2="242.44"/><rect class="cls-10" x="162.9" y="247.44" width="10.44" height="105"/><text class="cls-11" transform="translate(98.9 388.41)">W<tspan class="cls-12" x="31.97" y="0">olverine</tspan></text></svg>