<?xml version="1.0" encoding="UTF-8"?>
<svg width="514px" height="446px" viewBox="0 0 514 446" version="1.1" xmlns="http://www.w3.org/2000/svg" xmlns:xlink="http://www.w3.org/1999/xlink">
    <!-- Generator: Sketch 39.1 (31720) - http://www.bohemiancoding.com/sketch -->
    <title>Group</title>
    <desc>Created with Sketch.</desc>
    <defs>
        <radialGradient cx="50%" cy="66.9152996%" fx="50%" fy="66.9152996%" r="97.5411864%" id="radialGradient-1">
            <stop stop-color="#FF5A76" offset="0.0617825255%"></stop>
            <stop stop-color="#F61671" offset="100%"></stop>
        </radialGradient>
        <radialGradient cx="23.9802951%" cy="11.8321616%" fx="23.9802951%" fy="11.8321616%" r="79.1474251%" id="radialGradient-2">
            <stop stop-color="#FD498E" offset="0%"></stop>
            <stop stop-color="#E11A3E" offset="100%"></stop>
        </radialGradient>
        <radialGradient cx="57.7332508%" cy="13.9001042%" fx="57.7332508%" fy="13.9001042%" r="136.677894%" id="radialGradient-3">
            <stop stop-color="#FA2775" offset="0%"></stop>
            <stop stop-color="#DE1639" offset="100%"></stop>
        </radialGradient>
        <path d="M40.8219256,247.260163 C15.5437908,221.010186 0,185.320317 0,146 C0,65.3664265 65.3664265,0 146,0 C190.428481,0 230.221969,19.84476 257,51.1538144 C283.778031,19.84476 323.571519,0 368,0 C448.633573,0 514,65.3664265 514,146 C514,189.72223 494.781144,228.955656 464.33056,255.713148 L268.259085,445.348086 L53.3963214,259.721948 C48.4806167,255.475129 44.2936805,251.308604 40.8219288,247.260166 Z" id="path-4"></path>
        <linearGradient x1="19.1494114%" y1="50%" x2="68.1548616%" y2="50%" id="linearGradient-5">
            <stop stop-color="#FC2970" stop-opacity="0.673290308" offset="0%"></stop>
            <stop stop-color="#FFFFFF" offset="100%"></stop>
        </linearGradient>
    </defs>
    <g id="Page-1-Copy" stroke="none" stroke-width="1" fill="none" fill-rule="evenodd">
        <g id="Group">
            <g id="Combined-Shape">
                <use fill="url(#radialGradient-1)" xlink:href="#path-4"></use>
                <use fill="url(#radialGradient-2)" xlink:href="#path-4"></use>
                <use fill="url(#radialGradient-3)" style="mix-blend-mode: lighten;" xlink:href="#path-4"></use>
            </g>
            <rect id="Rectangle" fill="url(#linearGradient-5)" x="79" y="194" width="120" height="15" rx="7.5"></rect>
            <path d="M417.891251,186.615935 C415.670239,187.090466 413.68865,188.562743 412.655278,190.778816 L405.748918,205.589552 L387.609185,160.692136 C387.585634,160.633846 387.561432,160.576015 387.536589,160.518646 C386.894086,157.901679 384.860101,155.721102 382.065335,155.024289 C378.054417,154.024255 373.975192,156.470341 372.972397,160.492331 L353.697476,237.799815 L300.553114,91.7868782 C300.266422,90.9992004 299.861537,90.2890264 299.365772,89.6690012 C298.766308,87.2971415 297.019083,85.2657133 294.532896,84.4096501 C290.624399,83.0638467 286.348484,85.1422556 285.000173,89.0580352 L251.006646,187.782408 L228.531448,165.30721 C227.097332,163.873094 225.224097,163.142302 223.341909,163.115523 C220.78952,162.423187 217.946093,163.101896 215.98035,165.137482 L186.100822,196.078639 C183.228439,199.053079 183.310939,203.801483 186.290542,206.678852 C189.264082,209.550367 194.016095,209.475482 196.890919,206.498515 L222.249731,180.238696 L248.339822,206.328787 C251.263678,209.252643 256.012799,209.253027 258.941731,206.324095 C259.780343,205.485484 260.379017,204.496269 260.737294,203.442789 C261.475641,202.679569 262.062631,201.746797 262.431045,200.676846 L292.470285,113.436556 L346.951421,263.122245 C347.548251,264.762022 348.657316,266.06591 350.032177,266.919825 C350.979781,267.914735 352.211818,268.66107 353.643504,269.018029 C357.654422,270.018064 361.733647,267.571977 362.736442,263.549987 L381.913219,186.636134 L398.348112,227.31392 C399.897175,231.147987 404.267403,233.000971 408.107924,231.4493 C410.32592,230.553172 411.884909,228.712009 412.504495,226.576354 C412.558057,226.474004 412.609537,226.369933 412.658856,226.264167 L424.55761,200.747206 L497.390548,200.747206 C501.535229,200.747206 504.895493,197.389342 504.895493,193.247206 C504.895493,189.113499 501.535415,185.747206 497.390548,185.747206 L421.400439,185.747206 C420.132762,185.747206 418.938466,186.061328 417.891251,186.615935 Z" id="Combined-Shape" fill="#FFFFFF"></path>
        </g>
    </g>
</svg>