<?xml version="1.0" standalone="no"?>
<!DOCTYPE svg PUBLIC "-//W3C//DTD SVG 20010904//EN"
 "http://www.w3.org/TR/2001/REC-SVG-20010904/DTD/svg10.dtd">
<svg version="1.0" xmlns="http://www.w3.org/2000/svg"
 width="16.000000pt" height="16.000000pt" viewBox="0 0 16.000000 16.000000"
 preserveAspectRatio="xMidYMid meet">
<metadata>
Created by potrace 1.11, written by Peter Selinger 2001-2013
</metadata>
<g transform="translate(0.000000,16.000000) scale(0.000873,-0.000873)"
fill="#000000" stroke="none">
<path d="M14247 13823 c-1 -1 -47 -4 -102 -8 -122 -7 -189 -13 -235 -19 -19
-3 -60 -8 -90 -11 -48 -5 -116 -16 -185 -29 -11 -2 -40 -7 -65 -11 -25 -4 -81
-15 -125 -26 -44 -10 -91 -20 -105 -23 -14 -2 -25 -5 -25 -6 0 -1 -9 -3 -20
-4 -60 -7 -424 -124 -539 -173 -44 -19 -86 -35 -95 -37 -15 -3 -103 -43 -278
-128 -101 -48 -271 -141 -352 -192 -22 -15 -45 -26 -51 -26 -5 0 -10 -4 -10
-9 0 -5 -13 -14 -30 -21 -16 -7 -30 -16 -30 -21 0 -5 -5 -9 -11 -9 -9 0 -50
-27 -192 -128 -70 -49 -237 -181 -317 -250 -125 -108 -397 -387 -490 -502 -19
-24 -45 -54 -57 -66 -13 -13 -23 -26 -23 -29 0 -3 -26 -39 -57 -80 -32 -40
-74 -96 -93 -125 -19 -28 -41 -57 -47 -65 -7 -7 -13 -16 -13 -19 0 -3 -16 -28
-35 -55 -19 -26 -35 -53 -35 -60 0 -6 -4 -11 -10 -11 -5 0 -10 -5 -10 -11 0
-6 -13 -29 -28 -52 -16 -23 -44 -71 -63 -107 -19 -36 -36 -67 -39 -70 -3 -3
-26 -45 -50 -95 -24 -49 -49 -93 -55 -97 -5 -4 -7 -8 -3 -8 4 0 -6 -26 -21
-57 -16 -32 -41 -87 -55 -123 -15 -36 -33 -78 -41 -95 -13 -29 -39 -95 -41
-105 0 -3 -6 -18 -13 -35 -23 -52 -109 -317 -126 -385 -9 -36 -19 -72 -22 -80
-3 -8 -7 -22 -8 -30 -2 -8 -17 -78 -35 -155 -17 -77 -33 -153 -35 -170 -2 -16
-4 -31 -5 -32 -2 -2 -4 -16 -5 -33 -1 -16 -4 -31 -5 -32 -2 -2 -4 -19 -5 -38
-2 -19 -4 -35 -5 -35 -1 0 -4 -13 -5 -30 -2 -16 -6 -50 -9 -75 -14 -115 -17
-141 -23 -225 -10 -116 -9 -675 0 -785 4 -47 9 -112 11 -145 2 -33 7 -71 10
-85 3 -14 8 -47 10 -75 3 -27 9 -71 14 -96 5 -25 8 -57 8 -72 -1 -15 1 -27 4
-27 3 0 7 -11 8 -25 1 -13 9 -60 18 -102 9 -43 18 -89 21 -103 4 -21 12 -57
27 -120 2 -8 11 -42 20 -75 9 -33 18 -69 20 -81 2 -11 6 -26 10 -33 4 -6 9
-21 12 -34 2 -12 15 -56 29 -97 14 -41 27 -83 30 -92 2 -9 9 -27 16 -40 7 -13
12 -25 12 -28 -1 -6 6 -29 17 -55 4 -11 14 -36 20 -55 7 -19 23 -57 35 -85 13
-27 31 -70 41 -95 47 -119 235 -477 258 -492 6 -4 7 -8 2 -8 -5 0 -2 -8 6 -17
8 -10 27 -40 43 -68 38 -66 270 -394 294 -415 3 -3 40 -45 81 -95 74 -89 392
-415 405 -415 4 0 19 -12 34 -27 41 -40 80 -74 126 -107 22 -16 45 -34 52 -40
27 -24 115 -90 153 -116 12 -8 28 -19 34 -25 7 -5 21 -15 31 -22 11 -7 66 -42
122 -78 57 -36 107 -65 113 -65 5 0 10 -4 10 -10 0 -5 6 -10 14 -10 8 0 21 -6
28 -13 25 -22 361 -192 441 -222 26 -10 47 -21 47 -25 0 -4 6 -7 13 -7 6 0 28
-7 47 -15 77 -34 242 -97 270 -103 8 -2 64 -19 124 -39 60 -20 112 -33 117
-30 5 3 9 1 9 -5 0 -5 8 -10 18 -9 9 0 49 -9 87 -20 39 -11 84 -22 100 -25 17
-3 48 -9 70 -15 22 -6 57 -13 79 -16 21 -4 41 -8 45 -10 3 -2 30 -7 60 -10 29
-4 56 -8 60 -10 3 -2 29 -7 56 -10 28 -3 61 -8 75 -10 14 -3 52 -7 85 -11 33
-3 80 -8 105 -11 54 -5 111 -10 250 -20 110 -7 585 -8 680 0 198 16 248 19
273 20 15 1 27 3 27 6 0 3 15 6 33 6 59 2 214 22 237 31 8 3 29 6 45 8 17 1
44 5 60 8 17 4 44 9 60 12 17 2 82 16 145 30 63 15 130 28 149 31 18 2 43 10
55 16 11 6 22 11 24 10 1 -1 3 -2 5 -1 1 0 9 2 17 4 35 7 111 28 204 57 54 16
104 31 110 33 6 1 24 7 39 13 16 7 37 12 48 12 13 0 18 4 13 12 -4 6 -3 8 3 5
8 -5 93 24 198 68 11 4 25 9 31 10 12 3 38 14 147 64 37 17 71 31 76 31 25 0
477 239 594 313 31 20 60 37 62 37 7 0 368 242 380 254 6 6 34 27 62 46 29 19
53 38 53 43 0 4 6 7 14 7 8 0 17 7 20 16 4 9 9 14 12 11 3 -3 17 4 30 16 52
46 63 56 118 97 31 23 56 46 56 51 0 5 6 9 14 9 8 0 17 8 20 18 2 9 4 870 4
1913 l-1 1897 -1931 -2 -1930 -1 -1 -688 c0 -627 1 -688 16 -692 9 -3 45 -5
80 -5 90 0 97 0 112 0 6 0 32 0 57 0 25 0 62 0 83 0 22 0 43 3 48 6 6 3 16 1
24 -6 9 -7 15 -8 20 0 4 7 12 7 26 0 13 -8 19 -7 19 0 0 6 5 8 12 4 13 -8 68
-12 63 -4 -2 3 19 5 46 5 27 0 49 -4 49 -8 0 -5 5 -5 10 -2 6 4 36 6 68 6 31
0 72 -1 91 -1 18 0 42 2 51 5 10 3 21 2 24 -3 2 -4 20 -7 38 -5 40 5 38 5 118
4 36 -1 73 -1 83 -1 9 0 23 0 30 0 6 0 32 0 57 0 25 0 62 0 83 0 22 0 43 3 48
6 6 3 16 1 24 -6 9 -7 15 -8 20 0 4 7 12 7 26 0 13 -8 19 -7 19 0 0 6 5 8 12
4 13 -8 68 -12 63 -4 -2 3 19 5 46 5 27 0 49 -4 49 -8 0 -5 5 -5 10 -2 6 4 36
6 68 6 31 0 72 -1 91 -1 18 0 42 2 51 5 10 3 21 2 24 -3 2 -4 20 -7 38 -5 40
5 37 5 123 4 131 -2 139 -2 143 -6 2 -2 14 0 26 4 11 5 30 5 41 1 11 -4 34 -4
52 1 18 4 34 4 34 0 5 -20 3 -1694 -1 -1700 -3 -4 -27 -23 -55 -42 -27 -18
-51 -37 -53 -41 -2 -5 -8 -8 -14 -8 -5 0 -28 -13 -51 -29 -127 -86 -475 -265
-577 -296 -14 -4 -38 -13 -55 -20 -45 -20 -296 -104 -325 -109 -14 -3 -25 -5
-25 -7 0 -1 -9 -3 -20 -5 -11 -2 -65 -14 -120 -28 -55 -13 -113 -27 -130 -30
-16 -2 -40 -7 -52 -10 -11 -2 -43 -7 -70 -11 -26 -4 -59 -9 -73 -11 -202 -31
-548 -45 -785 -30 -96 6 -116 8 -233 20 -47 6 -192 29 -247 40 -16 4 -250 65
-305 80 -120 34 -425 172 -585 264 -69 41 -198 123 -205 132 -3 4 -27 22 -55
40 -27 19 -55 39 -61 45 -6 5 -26 21 -44 35 -137 103 -324 296 -506 523 -8 9
-14 22 -14 27 0 6 -4 10 -10 10 -5 0 -10 5 -10 10 0 6 -9 20 -20 32 -10 11
-26 36 -35 54 -9 19 -20 34 -25 34 -6 0 -10 6 -10 14 0 8 -6 21 -12 28 -35 38
-172 310 -228 453 -4 11 -15 36 -23 55 -8 19 -18 46 -22 60 -3 14 -10 34 -15
45 -15 36 -23 60 -27 80 -1 11 -7 29 -12 40 -5 11 -14 40 -20 65 -7 25 -22 88
-35 140 -32 129 -58 267 -72 390 -2 25 -7 59 -9 75 -25 165 -25 733 0 865 2
14 6 50 9 80 2 30 6 62 9 70 3 8 8 33 11 55 7 57 17 107 23 125 7 19 10 28 16
65 3 17 17 71 31 120 15 50 29 98 31 107 7 32 73 214 94 261 12 25 21 48 21
51 0 3 17 41 37 83 20 43 37 80 38 83 3 15 102 196 126 232 11 14 19 34 19 43
0 9 4 14 9 10 5 -3 13 5 17 17 3 12 10 26 15 32 5 6 25 36 46 66 52 80 166
229 207 274 20 21 36 41 36 43 0 6 242 246 290 288 19 17 64 53 100 80 36 28
67 52 70 55 9 10 250 170 255 170 3 0 24 12 47 26 87 55 382 194 443 209 6 1
17 5 25 8 44 18 130 45 130 41 0 -3 8 -1 18 5 9 5 71 21 136 36 119 26 140 30
226 41 25 3 56 7 69 9 66 11 401 23 431 15 3 0 55 -3 115 -5 112 -4 202 -11
265 -20 19 -2 60 -7 90 -11 30 -3 57 -8 60 -9 3 -2 26 -6 50 -9 45 -7 72 -11
120 -22 14 -3 36 -7 50 -10 23 -5 241 -61 265 -68 6 -2 18 -6 28 -9 35 -14 53
-19 77 -23 13 -3 29 -9 35 -13 5 -5 28 -14 50 -20 22 -7 49 -16 60 -21 11 -5
45 -19 75 -31 30 -13 58 -28 62 -33 4 -6 8 -8 8 -3 0 4 15 0 33 -10 17 -9 37
-18 42 -19 9 -2 62 -30 203 -106 49 -26 117 -69 138 -87 6 -5 20 -12 32 -15
12 -4 22 -12 22 -17 0 -5 4 -9 10 -9 11 0 113 -71 118 -82 2 -5 10 -8 18 -8 8
0 17 -7 20 -15 4 -8 10 -15 15 -15 11 0 143 -99 147 -111 2 -5 10 -9 18 -9 8
0 14 -4 14 -8 0 -4 12 -15 28 -25 24 -15 80 -61 123 -102 9 -8 20 -15 25 -15
14 1 46 31 77 73 16 20 38 48 50 61 12 14 29 33 37 43 8 10 35 43 60 73 25 30
47 57 50 60 3 3 43 50 89 105 46 55 88 102 92 103 5 2 9 8 9 13 0 5 9 20 20
32 57 63 88 98 115 133 17 21 46 57 65 79 19 23 55 66 80 95 25 29 50 58 55
64 8 10 81 98 108 131 4 6 30 35 57 65 27 30 50 58 50 61 0 7 -53 54 -110 99
-18 14 -37 30 -44 36 -6 5 -65 50 -131 100 -66 49 -126 94 -133 101 -6 6 -21
15 -32 18 -11 3 -20 10 -20 15 0 4 -16 15 -35 24 -19 9 -35 21 -35 26 0 6 -5
10 -10 10 -12 0 -124 72 -128 83 -2 4 -8 7 -13 7 -5 0 -26 11 -47 23 -71 45
-369 207 -387 211 -5 2 -50 21 -99 44 -49 23 -90 42 -91 42 -1 0 -20 8 -41 17
-22 9 -44 17 -49 19 -6 1 -33 11 -60 22 -77 32 -220 82 -233 82 -7 0 -12 4
-12 8 0 4 -8 8 -17 8 -30 2 -70 12 -92 24 -12 6 -21 8 -21 6 0 -3 -18 1 -41 9
-55 20 -196 54 -309 75 -36 7 -72 15 -80 18 -8 3 -24 6 -35 8 -11 1 -31 5 -45
8 -14 3 -45 9 -70 12 -45 5 -53 7 -120 18 -68 11 -116 17 -170 21 -30 3 -74 7
-97 10 -95 11 -133 15 -253 21 -114 6 -658 12 -663 7z"/>
<path d="M94 13672 l-30 -3 0 -4532 1 -4532 23 -1 c12 -1 25 -4 28 -7 3 -3 17
-2 30 3 15 6 26 6 30 -1 4 -7 10 -7 18 0 7 6 16 8 19 4 9 -8 162 -7 176 1 5 4
12 2 16 -3 4 -7 15 -7 30 -1 16 6 25 6 25 0 0 -6 9 -6 24 0 13 5 27 6 30 3 8
-8 102 -7 115 1 5 4 12 2 16 -3 4 -7 15 -7 30 -1 16 6 25 6 25 0 0 -6 9 -6 24
0 13 5 27 6 30 2 4 -3 32 -5 64 -3 31 1 64 2 72 2 62 -3 162 -1 169 4 5 3 12
1 16 -4 3 -7 15 -7 30 -1 16 6 27 6 31 -1 4 -7 10 -7 18 0 7 6 16 8 19 4 8 -8
193 -7 206 1 5 4 12 2 16 -3 3 -7 15 -7 30 -1 16 6 27 6 31 -1 4 -7 10 -7 18
0 7 6 16 8 19 5 6 -6 118 -9 142 -4 6 1 13 2 16 2 3 -1 6 704 7 1566 0 862 1
1572 1 1578 1 7 8 15 17 18 9 4 13 2 8 -5 -4 -8 -1 -8 12 -2 11 5 39 8 64 6
54 -4 39 -4 173 -1 59 2 107 -1 107 -6 0 -5 6 -4 13 1 6 5 37 7 67 6 30 -2 61
-3 68 -3 6 0 32 0 57 0 25 0 52 0 60 0 78 0 167 0 178 0 21 -1 151 0 172 1 11
0 39 0 63 0 23 -1 48 -1 55 -1 6 0 59 1 117 3 58 1 111 -1 118 -6 6 -5 12 -6
12 -1 0 5 23 9 50 9 28 0 50 -4 50 -8 0 -5 5 -5 12 -1 17 11 168 11 168 1 0
-5 5 -5 12 -1 17 11 108 11 108 1 0 -5 6 -5 13 0 15 9 33 10 75 2 17 -4 32 -4
32 0 0 4 24 6 53 6 61 0 52 9 181 -175 52 -74 100 -140 105 -147 6 -7 11 -15
11 -18 0 -4 6 -12 12 -19 7 -8 19 -22 26 -32 44 -66 134 -192 148 -209 9 -11
21 -30 27 -42 5 -13 14 -23 19 -23 4 0 8 -6 8 -14 0 -8 4 -16 8 -18 4 -1 33
-39 63 -83 93 -134 133 -190 141 -193 5 -2 8 -9 8 -16 0 -7 9 -21 20 -31 11
-10 20 -24 20 -31 0 -7 6 -17 12 -21 7 -4 35 -40 62 -80 27 -40 58 -82 70 -95
11 -12 20 -25 19 -28 -1 -3 7 -15 17 -28 11 -12 20 -25 20 -30 0 -4 10 -18 21
-32 11 -14 38 -52 61 -85 23 -33 44 -62 48 -65 3 -3 21 -29 40 -57 18 -29 37
-53 41 -53 4 0 11 -10 15 -22 3 -12 12 -28 18 -35 28 -32 36 -43 36 -52 0 -5
4 -11 8 -13 5 -1 23 -25 42 -53 18 -27 36 -52 40 -55 3 -3 17 -23 30 -45 13
-22 27 -42 30 -45 13 -11 250 -352 250 -360 0 -4 4 -10 9 -12 8 -3 28 -30 117
-160 26 -37 53 -73 60 -79 8 -6 14 -18 14 -25 0 -8 5 -14 10 -14 6 0 10 -6 10
-14 0 -8 4 -16 8 -18 7 -2 74 -95 107 -146 6 -9 15 -22 21 -28 6 -7 25 -35 43
-63 18 -28 38 -51 44 -51 6 0 8 -3 4 -6 -3 -3 18 -38 47 -77 51 -71 81 -114
101 -146 15 -23 58 -33 92 -20 13 5 25 4 29 -2 3 -6 10 -6 17 -1 7 5 21 6 32
2 11 -4 32 -4 47 1 14 4 29 5 32 1 8 -7 102 -6 115 2 5 4 12 2 16 -3 4 -7 15
-7 30 -1 14 5 25 6 25 1 0 -5 16 -5 34 -1 19 4 37 5 40 2 9 -8 49 -9 78 -1 15
4 30 4 33 -1 3 -5 16 -5 30 0 16 6 25 6 25 0 0 -6 9 -6 24 0 13 5 27 6 30 3 8
-8 102 -7 115 1 5 4 12 2 16 -3 4 -7 15 -7 30 -1 16 6 25 6 25 0 0 -6 9 -6 24
0 13 5 27 6 30 2 4 -3 32 -5 64 -3 31 1 64 2 72 1 52 -3 131 0 139 5 5 3 12 1
16 -4 4 -7 15 -7 30 -1 16 6 25 6 25 0 0 -6 9 -6 24 0 13 5 27 6 30 3 8 -8
102 -7 115 1 5 4 12 2 16 -3 4 -7 15 -7 30 -1 16 6 25 6 25 0 0 -6 9 -6 24 0
13 5 27 6 30 3 8 -8 102 -7 115 2 6 3 19 1 30 -5 12 -6 28 -7 43 -1 13 5 31 6
39 2 7 -5 25 -5 38 -2 22 6 23 8 8 23 -10 9 -17 19 -17 22 0 6 -23 36 -46 60
-6 7 -18 25 -27 41 -8 17 -24 39 -34 50 -10 11 -36 47 -58 79 -22 33 -44 64
-50 71 -5 6 -14 18 -20 27 -42 65 -128 182 -137 186 -5 2 -8 8 -8 13 0 5 -15
28 -32 52 -18 24 -40 54 -48 67 -8 12 -21 28 -27 36 -7 7 -13 15 -13 19 0 8
-63 89 -72 93 -5 2 -8 9 -8 16 0 7 -10 24 -22 38 -13 14 -27 32 -33 41 -5 8
-24 35 -41 58 -17 24 -43 62 -58 84 -15 22 -30 42 -34 45 -4 3 -11 12 -17 21
-27 43 -69 105 -74 109 -3 3 -16 20 -29 38 -66 94 -88 126 -97 141 -5 9 -13
18 -16 21 -3 3 -48 64 -98 135 -51 72 -99 139 -107 150 -8 11 -41 58 -75 105
-33 47 -66 93 -74 102 -7 9 -18 25 -24 36 -6 11 -17 26 -23 34 -7 7 -29 36
-48 63 -19 28 -38 52 -42 53 -4 2 -8 8 -8 13 0 10 -35 63 -58 88 -7 7 -21 26
-30 40 -22 34 -219 311 -237 333 -8 10 -27 37 -42 60 -15 24 -32 48 -38 55 -5
7 -16 19 -22 27 -7 8 -13 20 -13 26 0 5 -3 10 -8 10 -4 0 -18 18 -32 40 -14
22 -28 40 -32 40 -4 0 -10 9 -13 20 -3 11 -12 26 -19 32 -6 7 -27 35 -46 63
-19 27 -39 55 -45 61 -5 7 -48 67 -95 134 -47 66 -108 153 -137 193 l-52 72
37 9 c20 5 40 13 43 18 3 5 10 9 15 8 15 -3 115 23 120 32 3 4 12 8 19 8 47 0
491 200 592 266 21 13 42 24 47 23 5 0 12 3 15 8 3 5 47 36 96 69 103 68 158
106 165 115 3 3 34 30 70 59 91 75 263 244 313 309 23 30 54 68 69 85 67 78
203 293 268 424 53 108 80 169 80 181 0 6 5 11 11 11 5 0 8 4 4 9 -3 5 -1 12
4 15 4 3 11 18 14 33 3 16 13 45 21 65 9 21 16 39 15 40 0 2 5 17 11 33 7 17
13 37 15 45 2 8 13 50 25 93 12 43 23 88 26 100 2 12 6 33 9 47 3 14 8 41 11
60 4 19 8 44 11 55 2 11 6 40 8 65 3 25 8 59 10 75 28 197 22 720 -10 880 -2
11 -7 34 -10 50 -3 17 -12 68 -22 115 -9 47 -16 91 -16 98 0 6 -4 12 -8 12 -4
0 -6 8 -4 18 1 9 -1 24 -6 33 -4 9 -10 28 -13 42 -7 37 -75 235 -97 281 -10
22 -19 44 -19 48 0 12 -140 292 -149 298 -4 3 -11 12 -15 20 -24 50 -140 220
-181 265 -5 7 -21 26 -35 44 -64 85 -205 227 -305 307 -33 27 -69 57 -79 66
-11 10 -23 18 -27 18 -4 0 -14 6 -21 13 -24 23 -118 87 -128 87 -6 0 -10 4
-10 9 0 5 -8 11 -17 15 -10 3 -47 24 -83 46 -84 53 -424 220 -447 220 -4 0
-20 6 -34 14 -49 25 -354 125 -354 115 0 -1 -9 3 -21 9 -11 6 -32 13 -45 16
-13 3 -45 10 -71 15 -114 26 -145 32 -173 36 -16 3 -41 7 -55 10 -49 11 -116
22 -180 30 -25 3 -61 7 -80 10 -19 3 -64 7 -100 11 -36 3 -78 8 -95 9 -117 14
-605 18 -2390 19 -1117 0 -2044 0 -2061 -2z m4211 -1464 c17 -3 55 -8 85 -12
47 -5 178 -27 245 -40 109 -21 308 -82 343 -104 12 -8 22 -11 22 -8 0 12 228
-112 307 -166 157 -108 320 -293 395 -448 51 -107 95 -227 102 -278 2 -15 6
-34 9 -42 10 -24 24 -114 22 -138 -1 -12 1 -22 4 -22 21 0 18 -408 -3 -516 -3
-12 -7 -39 -10 -60 -4 -21 -14 -66 -22 -99 -9 -33 -17 -65 -18 -71 -1 -7 -7
-18 -14 -26 -6 -8 -13 -23 -15 -34 -17 -85 -132 -282 -227 -385 -14 -15 -37
-40 -51 -55 -36 -40 -95 -93 -149 -134 -25 -19 -47 -37 -50 -41 -3 -3 -45 -30
-95 -59 -49 -30 -93 -59 -97 -64 -4 -6 -8 -8 -8 -4 0 4 -28 -7 -61 -23 -98
-49 -262 -105 -394 -136 -40 -9 -50 -12 -50 -13 0 -1 -13 -3 -30 -5 -16 -1
-30 -3 -30 -5 0 -1 -9 -3 -20 -4 -11 -2 -42 -6 -70 -11 -27 -4 -66 -9 -85 -11
-19 -1 -69 -5 -110 -9 -41 -4 -636 -8 -1322 -9 -1245 -1 -1248 -1 -1249 19 -1
25 -1 2995 0 3013 1 11 236 12 1309 9 719 -2 1321 -7 1337 -9z"/>
</g>
</svg>
