<?xml version="1.0" encoding="UTF-8"?>
<svg width="411px" height="487px" viewBox="0 0 411 487" version="1.1" xmlns="http://www.w3.org/2000/svg" xmlns:xlink="http://www.w3.org/1999/xlink">
    <!-- Generator: Sketch 40.1 (33804) - http://www.bohemiancoding.com/sketch -->
    <title>Group</title>
    <desc>Created with Sketch.</desc>
    <defs></defs>
    <g id="Page-1" stroke="none" stroke-width="1" fill="none" fill-rule="evenodd">
        <g id="Group">
            <circle id="Oval-3-Copy-5" fill="#5C5762" cx="70.5" cy="183.5" r="50.5"></circle>
            <circle id="Oval-3-Copy-7" fill="#5C5762" cx="50.5" cy="223.5" r="50.5"></circle>
            <path d="M47.5,340 C71.5243866,340 91,320.524387 91,296.5 C91,272.475613 71.5243866,253 47.5,253 C23.4756134,253 4,272.475613 4,296.5 C4,320.524387 23.4756134,340 47.5,340 Z" id="Oval-3-Copy-9" fill="#5C5762"></path>
            <path d="M77.5,370 C101.524387,370 121,350.524387 121,326.5 C121,302.475613 101.524387,283 77.5,283 C53.4756134,283 34,302.475613 34,326.5 C34,350.524387 53.4756134,370 77.5,370 Z" id="Oval-3-Copy-11" fill="#5C5762"></path>
            <circle id="Oval-3-Copy-10" fill="#5C5762" cx="367.5" cy="296.5" r="43.5"></circle>
            <circle id="Oval-3-Copy-12" fill="#5C5762" cx="327.5" cy="316.5" r="43.5"></circle>
            <circle id="Oval-3-Copy-6" fill="#5C5762" cx="340.5" cy="173.5" r="50.5"></circle>
            <circle id="Oval-3-Copy-8" fill="#5C5762" cx="360.5" cy="223.5" r="50.5"></circle>
            <rect id="Rectangle-2" fill="#61ACD5" transform="translate(345.308550, 261.342345) rotate(-5.000000) translate(-345.308550, -261.342345) " x="312" y="192" width="66.6170996" height="138.684689"></rect>
            <rect id="Rectangle-2-Copy" fill="#61ACD5" transform="translate(59.308550, 261.342345) rotate(4.000000) translate(-59.308550, -261.342345) " x="26" y="192" width="66.6170996" height="138.684689"></rect>
            <path d="M91,115 L309,115 L334.889571,397.196325 C337.159698,421.940711 319.727674,447.860494 295.948928,455.091338 L193.585938,486.21875 L113.337314,457.271761 C89.9550611,448.8374 72.230357,421.883663 73.7468234,397.089438 L91,115 Z" id="Rectangle" fill="#85CEF5"></path>
            <path d="M205.156156,353.503906 C225.676935,353.503906 242.312313,336.868528 242.312313,316.34775 C242.312313,295.826971 205.156156,248 205.156156,248 C205.156156,248 168,295.826971 168,316.34775 C168,336.868528 184.635378,353.503906 205.156156,353.503906 Z" id="Oval" fill="#61ACD5"></path>
            <ellipse id="Oval-2" fill="#5C5662" cx="205.5" cy="119" rx="50.5" ry="66"></ellipse>
            <ellipse id="Oval-2-Copy" fill="#5C5662" cx="258" cy="104.5" rx="36" ry="58.5"></ellipse>
            <ellipse id="Oval-2-Copy-2" fill="#5C5662" cx="148" cy="104.5" rx="36" ry="58.5"></ellipse>
            <circle id="Oval-3" fill="#5C5762" cx="205.5" cy="50.5" r="50.5"></circle>
            <circle id="Oval-3-Copy" fill="#5C5762" cx="147.5" cy="70.5" r="50.5"></circle>
            <circle id="Oval-3-Copy-2" fill="#5C5762" cx="267.5" cy="70.5" r="50.5"></circle>
            <circle id="Oval-3-Copy-3" fill="#5C5762" cx="310.5" cy="113.5" r="50.5"></circle>
            <circle id="Oval-3-Copy-4" fill="#5C5762" cx="100.5" cy="113.5" r="50.5"></circle>
            <rect id="Rectangle-3" fill="#FFBF5F" x="184" y="36" width="47" height="104"></rect>
            <rect id="Rectangle-3-Copy-5" fill="#FFBF5F" x="146" y="54" width="39" height="86"></rect>
            <rect id="Rectangle-3-Copy-6" fill="#FFBF5F" x="231" y="54" width="39" height="86"></rect>
            <rect id="Rectangle-3-Copy-2" fill="#FFBF5F" x="269" y="66" width="33" height="74"></rect>
            <rect id="Rectangle-3-Copy-4" fill="#FFBF5F" x="299" y="88" width="23" height="52"></rect>
            <rect id="Rectangle-3-Copy" fill="#FFBF5F" x="114" y="67" width="33" height="73"></rect>
            <rect id="Rectangle-3-Copy-3" fill="#FFBF5F" x="94" y="89" width="23" height="51"></rect>
            <rect id="Rectangle-3-Copy-7" fill="#FFBF5F" x="79" y="104" width="16.2352941" height="36"></rect>
            <rect id="Rectangle-4" fill="#F06161" x="196" y="58" width="23" height="75"></rect>
            <rect id="Rectangle-4-Copy-5" fill="#F06161" x="156" y="69" width="20" height="64"></rect>
            <rect id="Rectangle-4-Copy-6" fill="#F06161" x="241" y="69" width="20" height="64"></rect>
            <rect id="Rectangle-4-Copy" fill="#F06161" x="123" y="84" width="15" height="49"></rect>
            <rect id="Rectangle-4-Copy-3" fill="#F06161" x="100" y="98" width="12" height="39.2"></rect>
            <rect id="Rectangle-4-Copy-7" fill="#F06161" x="84" y="113" width="7" height="22.8666667"></rect>
            <rect id="Rectangle-3-Copy-8" fill="#FFBF5F" x="321" y="104" width="16.2352941" height="36"></rect>
            <rect id="Rectangle-4-Copy-8" fill="#F06161" x="326" y="113" width="7" height="22.8666667"></rect>
            <rect id="Rectangle-4-Copy-4" fill="#F06161" x="303" y="98" width="12" height="39.2"></rect>
            <rect id="Rectangle-4-Copy-2" fill="#F06161" x="278" y="84" width="15" height="49"></rect>
        </g>
    </g>
</svg>